<?xml version="1.0" encoding="utf-8"?>
<!-- Generator: Adobe Illustrator 18.0.0, SVG Export Plug-In . SVG Version: 6.00 Build 0)  -->
<!DOCTYPE svg PUBLIC "-//W3C//DTD SVG 1.1//EN" "http://www.w3.org/Graphics/SVG/1.1/DTD/svg11.dtd">
<svg version="1.1" id="Layer_1" xmlns="http://www.w3.org/2000/svg" xmlns:xlink="http://www.w3.org/1999/xlink" x="0px" y="0px"
	 viewBox="0 0 130 130" enable-background="new 0 0 130 130" xml:space="preserve">
<g>
	<circle fill="#F34B50" cx="65" cy="65.00009" r="64"/>
	<g>
		<path fill="#E53946" d="M71.1185,9.83907c0,0.55517-0.45006,1.00522-1.00522,1.00522h-3.90889
			c-0.55278,0-1.00515-0.45233-1.00515-1.0052c0-0.55287,0.45237-1.00524,1.00515-1.00524h3.90889
			C70.66844,8.83385,71.1185,9.2839,71.1185,9.83907L71.1185,9.83907z"/>
		<path fill="#E53946" d="M73.98642,9.83907L73.98642,9.83907c0-0.55517,0.45005-1.00522,1.00522-1.00522h12.65654
			c0.55517,0,1.00522,0.45005,1.00522,1.00522v0c0,0.55517-0.45005,1.00522-1.00522,1.00522H74.99164
			C74.43647,10.84428,73.98642,10.39423,73.98642,9.83907z"/>
		<path fill="#E53946" d="M29.70211,19.70669c0.55518,0,1.00513-0.45001,1.00513-1.00519s-0.44995-1.00525-1.00513-1.00525h-7.8103
			c-0.71777,0.65454-1.42139,1.32428-2.10864,2.01044H29.70211z"/>
		<path fill="#E53946" d="M38.7993,18.70158c0,0.55517-0.45005,1.00522-1.00523,1.00522l-4.1234,0
			c-0.55278,0-1.00516-0.45233-1.00516-1.0052s0.45238-1.00524,1.00516-1.00524l4.1234,0
			C38.34924,17.69636,38.7993,18.14641,38.7993,18.70158L38.7993,18.70158z"/>
		<path fill="#E53946" d="M11.96871,88.9725H5.66012c0.27344,0.67627,0.55884,1.34583,0.85449,2.01044h5.4541
			c0.55518,0,1.00513-0.45001,1.00513-1.00519C12.97384,89.42251,12.52389,88.9725,11.96871,88.9725z"/>
		<path fill="#E53946" d="M16.48834,90.98289h-0.94628c-0.55517,0-1.00522-0.45005-1.00522-1.00522l0,0
			c0-0.55517,0.45005-1.00522,1.00522-1.00522h0.94628c0.55513,0,1.00515,0.45007,1.00515,1.0052v0.00005
			C17.49349,90.53284,17.04347,90.98289,16.48834,90.98289z"/>
		<path fill="#E53946" d="M91.14414,94.35908c0-0.55517,0.45005-1.00522,1.00522-1.00522l16.00727-0.00001
			c0.55296,0,1.00515,0.45237,1.00515,1.00524s-0.45219,1.0052-1.00515,1.0052L92.14936,95.3643
			C91.59419,95.3643,91.14414,94.91425,91.14414,94.35908L91.14414,94.35908z"/>
		<path fill="#E53946" d="M89.58281,94.35908L89.58281,94.35908c0,0.55517-0.45005,1.00522-1.00522,1.00522h-4.80804
			c-0.55517,0-1.00522-0.45005-1.00522-1.00522l0,0c0-0.55517,0.45005-1.00522,1.00522-1.00522h4.80804
			C89.13276,93.35386,89.58281,93.80391,89.58281,94.35908z"/>
		<path fill="#E53946" d="M21.65403,53.55818c0-0.55517,0.45005-1.00522,1.00522-1.00522l7.50106,0
			c0.55296,0,1.00515,0.45237,1.00515,1.00524c0,0.55287-0.45219,1.0052-1.00515,1.0052l-7.50106,0
			C22.10408,54.5634,21.65403,54.11335,21.65403,53.55818L21.65403,53.55818z"/>
		<path fill="#E53946" d="M20.09269,53.55818L20.09269,53.55818c0,0.55517-0.45005,1.00522-1.00522,1.00522h-3.47669
			c-0.55517,0-1.00522-0.45005-1.00522-1.00521v0c0-0.55517,0.45005-1.00522,1.00522-1.00522h3.47669
			C19.64264,52.55296,20.09269,53.00301,20.09269,53.55818z"/>
		<path fill="#E53946" d="M13.47245,53.55818L13.47245,53.55818c0,0.55517-0.45005,1.00522-1.00522,1.00522h-0.73313
			c-0.55517,0-1.00522-0.45005-1.00522-1.00521v0c0-0.55517,0.45005-1.00522,1.00522-1.00522h0.73313
			C13.0224,52.55296,13.47245,53.00301,13.47245,53.55818z"/>
		<path fill="#E53946" d="M128.84502,69.34766c-0.04004,0.68018-0.09985,1.3501-0.15991,2.00977h-9.88012
			c-0.55981,0-1.01001-0.44971-1.01001-1c0-0.56006,0.4502-1.00977,1.01001-1.00977H128.84502z"/>
		<path fill="#E53946" d="M116.23539,70.3561L116.23539,70.3561c0,0.55518-0.45005,1.00523-1.00522,1.00523h-4.80804
			c-0.55516,0-1.00522-0.45005-1.00522-1.00522l0,0c0-0.55517,0.45006-1.00522,1.00522-1.00522h4.80804
			C115.78534,69.35089,116.23539,69.80094,116.23539,70.3561z"/>
		<path fill="#E53946" d="M40.39107,124.08773h4.52295c0.55518,0,1.00513-0.45007,1.00513-1.00519v-0.00006
			c0-0.55518-0.44995-1.00519-1.00513-1.00519h-8.85034C37.47872,122.79617,38.91793,123.47341,40.39107,124.08773z"/>
		<path fill="#E53946" d="M58.00883,122.07726h-8.95542c-0.55517,0-1.00522,0.45005-1.00522,1.00522l0,0
			c0,0.55517,0.45005,1.00522,1.00522,1.00522h8.95542c0.55296,0,1.00533-0.45238,1.00533-1.00524
			C59.01416,122.52959,58.56179,122.07726,58.00883,122.07726z"/>
		<path fill="#E53946" d="M79.76952,115.06217h12.75005c0.55516,0,1.00525,0.45005,1.00529,1.00522l0,0
			c0.00005,0.55517-0.44997,1.00522-1.00513,1.00522H79.76968c-0.55296,0-1.00518-0.45238-1.00523-1.00524
			C78.76441,115.5145,79.21657,115.06217,79.76952,115.06217z"/>
		<path fill="#E53946" d="M96.13741,116.06739c-0.00005-0.55516,0.44997-1.00522,1.00513-1.00522l1.08029,0.00001
			c0.55514,0,1.00519,0.45006,1.00523,1.0052c0.00005,0.55518-0.44994,1.00524-1.00507,1.00524h-1.0803
			C96.58755,117.07262,96.13746,116.62256,96.13741,116.06739L96.13741,116.06739z"/>
		<path fill="#E53946" d="M110.21481,37.66847L110.21481,37.66847c0-0.55517,0.45005-1.00522,1.00522-1.00522h1.67143
			c0.55517,0,1.00522,0.45005,1.00522,1.00521v0c0,0.55517-0.45005,1.00522-1.00522,1.00522h-1.67143
			C110.66486,38.67368,110.21481,38.22363,110.21481,37.66847z"/>
		<path fill="#E53946" d="M117.56149,38.67366h5.77051c-0.30518-0.67554-0.61621-1.3476-0.94409-2.01044h-4.82642
			c-0.55518,0-1.00537,0.45007-1.00537,1.00525S117.00631,38.67366,117.56149,38.67366z"/>
	</g>
	<g>
		<path fill="#E53946" d="M87.20277,91.06267c0,2.72177-2.20515,4.93279-4.93294,4.93279
			c-2.72177,0-4.93279-2.21101-4.93279-4.93279c0-2.72779,2.21101-4.9388,4.93279-4.9388
			C84.99763,86.12386,87.20277,88.33488,87.20277,91.06267z"/>
		<path fill="#E53946" d="M48.12066,91.06267c0,2.72177-2.20515,4.93279-4.93293,4.93279
			c-2.72178,0-4.93279-2.21101-4.93279-4.93279c0-2.72779,2.21101-4.9388,4.93279-4.9388
			C45.91551,86.12386,48.12066,88.33488,48.12066,91.06267z"/>
		<path fill="#E53946" d="M43.63626,70.45119c-1.35984,3.22602-2.14425,6.83224-2.14425,10.65901
			c0,13.53359,9.56136,33.09399,21.33733,33.09399c11.7764,0,21.33776-19.5604,21.33776-33.09399
			c0-3.82677-0.78441-7.43299-2.14382-10.65901H43.63626z"/>
		<path fill="#E53946" d="M64.15657,85.2691c1.23754,0.04849,2.29443-0.55097,3.22044-1.25728
			c0.91615-0.72734,1.89236-1.55723,3.0325-2.10735c2.24509-1.11826,4.90511-1.45982,7.27335-0.79256
			c-1.22467,0.02661-2.41801,0.12616-3.57102,0.39822c-1.14958,0.27162-2.26698,0.64838-3.3097,1.18004
			c-1.06719,0.48962-1.97003,1.23283-3.05009,1.88035C66.70889,85.20988,65.35506,85.69778,64.15657,85.2691z"/>
		<path fill="#E53946" d="M77.74626,86.09673c0,0-1.79756,4.02985-5.03696,4.81952c-3.25101,0.7925-6.70145-1.95803-6.70145-1.95803
			s1.7975-4.03014,5.04852-4.82264C74.29576,83.34591,77.74626,86.09673,77.74626,86.09673z"/>
		<path fill="#E53946" d="M74.41222,86.64653c0,1.81083-1.47655,3.26936-3.26936,3.26936
			c-1.80997,0-3.26893-1.45853-3.26893-3.26936c0-0.17551,0.01759-0.35144,0.05278-0.52694
			c0.80843-0.86122,1.84558-1.67009,3.12862-1.98634c0.66769-0.15791,1.37057-0.17551,2.02109-0.08797
			C73.88485,84.62543,74.41222,85.57462,74.41222,86.64653z"/>
		<path fill="#E53946" d="M72.62218,86.65138c0,0.82523-0.66673,1.48363-1.48343,1.48363
			c-0.81689,0-1.48342-0.65839-1.48342-1.48363c0-0.81669,0.66653-1.47488,1.48342-1.47488
			C71.95545,85.1765,72.62218,85.83469,72.62218,86.65138z"/>
		<path fill="#E53946" d="M77.75153,86.102c0,0-0.84362,1.88077-2.40771,3.30412c1.17747-1.30062,1.79281-2.68921,1.79281-2.68921
			s-3.46289-2.75916-6.69664-1.96832c-1.00197,0.24588-1.86318,0.79085-2.56606,1.42378
			c0.80843-0.89641,1.88034-1.72287,3.1814-2.03912C74.28906,83.34241,77.75153,86.102,77.75153,86.102z"/>
		<path fill="#E53946" d="M61.50254,85.2691c-1.23755,0.04849-2.29443-0.55097-3.22045-1.25728
			c-0.91614-0.72734-1.89236-1.55723-3.0325-2.10735c-2.24509-1.11826-4.90512-1.45982-7.27336-0.79256
			c1.22467,0.02661,2.41801,0.12616,3.57103,0.39822c1.14958,0.27162,2.26697,0.64838,3.3097,1.18004
			c1.06719,0.48962,1.97003,1.23283,3.05009,1.88035C58.95022,85.20988,60.30405,85.69778,61.50254,85.2691z"/>
		<path fill="#E53946" d="M47.91285,86.09673c0,0,1.79757,4.02985,5.03696,4.81952c3.25101,0.7925,6.70144-1.95803,6.70144-1.95803
			s-1.7975-4.03014-5.04851-4.82264C51.36335,83.34591,47.91285,86.09673,47.91285,86.09673z"/>
		<path fill="#E53946" d="M51.24689,86.64653c0,1.81083,1.47655,3.26936,3.26936,3.26936c1.80997,0,3.26893-1.45853,3.26893-3.26936
			c0-0.17551-0.01759-0.35144-0.05278-0.52694c-0.80843-0.86122-1.84558-1.67009-3.12862-1.98634
			c-0.66769-0.15791-1.37057-0.17551-2.02109-0.08797C51.77427,84.62543,51.24689,85.57462,51.24689,86.64653z"/>
		<path fill="#E53946" d="M53.03693,86.65138c0,0.82523,0.66674,1.48363,1.48343,1.48363c0.81689,0,1.48343-0.65839,1.48343-1.48363
			c0-0.81669-0.66653-1.47488-1.48343-1.47488C53.70366,85.1765,53.03693,85.83469,53.03693,86.65138z"/>
		<path fill="#E53946" d="M47.90759,86.102c0,0,0.84362,1.88077,2.40772,3.30412c-1.17747-1.30062-1.79281-2.68921-1.79281-2.68921
			s3.46289-2.75916,6.69664-1.96832c1.00196,0.24588,1.86318,0.79085,2.56606,1.42378
			c-0.80843-0.89641-1.88034-1.72287-3.1814-2.03912C51.37005,83.34241,47.90759,86.102,47.90759,86.102z"/>
		<path fill="#E53946" d="M84.69473,67.55022v10.82275c0,0.61449-0.40179,1.15784-0.99625,1.31348
			c-5.91792,1.5495-13.10278,2.45493-20.86892,2.45493c-7.7553,0-14.94851-0.90526-20.86709-2.44546
			c-0.59539-0.15494-0.99808-0.69865-0.99808-1.31388V67.54114c0-0.61524,0.40271-1.15897,0.99812-1.31389
			c5.91857-1.54,13.11176-2.44548,20.86705-2.44548c7.76613,0,14.95098,0.90567,20.86888,2.45496
			C84.29291,66.39236,84.69473,66.93571,84.69473,67.55022z"/>
		<path fill="#E53946" d="M74.58772,70.03381v5.85915c0,1.13003-0.83813,2.09699-1.9616,2.21864
			c-3.1418,0.34018-6.42725,0.52007-9.79678,0.52007c-3.36923,0-6.65467-0.1799-9.79675-0.52009
			c-1.12347-0.12164-1.96164-1.08861-1.96164-2.21864v-5.85911c0-1.13003,0.83817-2.097,1.96164-2.21864
			c3.14208-0.34019,6.42751-0.5201,9.79675-0.5201c3.36953,0,6.65498,0.1799,9.79678,0.52008
			C73.74959,67.93682,74.58772,68.90379,74.58772,70.03381z"/>
		<path fill="#E53946" d="M48.74074,69.44411l-4.22501,10.95375l-2.93726-9.65099l-13.14773,6.8536l5.45491-13.98694H22.69609
			l12.72812-10.21047l-13.2876-4.33595l15.80525-8.81178l-8.39217-9.93073l15.94511,3.91634l-5.31504-13.14773l17.34381,11.18955
			l5.87452-13.14773l6.57386,10.0706l10.35033-8.6719l2.37778,10.49021l17.20394-3.07713L91.7916,39.41612l18.04315,11.74903
			l-11.32942,2.37778l15.1059,10.90982l-13.00786,0.83921l6.01439,7.41309l-9.93073-3.07713l3.35687,8.11243l-9.09151-8.53203
			l0.97909,12.16864L80.99969,67.41358c-1.31542-1.68021-3.22647-2.79649-5.33831-3.10242
			c-6.49642-0.94108-13.22969-0.86598-20.12226-0.12399C52.47085,64.51747,49.8513,66.56488,48.74074,69.44411z"/>
		<path fill="#E53946" d="M45.41148,69.44411l-3.69629,10.95375l-2.56969-9.65099l-11.50241,6.8536l4.77227-13.98694h-9.78928
			l11.13531-10.21047l-11.62477-4.33595l13.82736-8.81178l-7.34196-9.93073l13.94973,3.91634l-4.64991-13.14773l15.17339,11.18955
			l5.13937-13.14773l5.75121,10.0706l9.05509-8.6719l2.08022,10.49021l15.05102-3.07713l-7.09723,11.46929l15.78522,11.74903
			l-9.91164,2.37778l13.21553,10.90982l-11.38004,0.83921l5.26174,7.41309l-8.68799-3.07713l2.93678,8.11243l-7.95379-8.53203
			l0.85656,12.16864l-9.56377-13.96337c-1.15081-1.68021-2.8227-2.79649-4.67027-3.10242
			c-5.68346-0.94108-11.57411-0.86598-17.60415-0.12399C48.6748,64.51747,46.38306,66.56488,45.41148,69.44411z"/>
		<g>
			<g>
				<g>
					<path fill="#E53946" d="M74.99924,110.19162c-0.115,0-0.22829-0.04463-0.3141-0.13217l-5.54749-5.68652
						c-0.16993-0.17422-0.1665-0.45228,0.00687-0.62135c0.17679-0.17164,0.45485-0.16392,0.62135,0.00687l5.54749,5.68652
						c0.16992,0.17422,0.16649,0.45228-0.00687,0.62135C75.22066,110.15042,75.10909,110.19162,74.99924,110.19162z"/>
				</g>
				<g>
					<path fill="#E53946" d="M80.34419,105.60189c-0.08411,0-0.16821-0.02403-0.24374-0.07381l-8.1187-5.41275
						c-0.20254-0.13474-0.25574-0.40765-0.12186-0.60933c0.13388-0.2034,0.40851-0.25575,0.60933-0.12187l8.1187,5.41276
						c0.20254,0.13474,0.25575,0.40765,0.12187,0.60933C80.62569,105.53323,80.48494,105.60189,80.34419,105.60189z"/>
				</g>
				<g>
					<path fill="#E53946" d="M82.60473,100.18914c-0.06351,0-0.12702-0.01373-0.1871-0.04205l-8.70057-4.10999
						c-0.2197-0.10384-0.3141-0.3656-0.2094-0.5853c0.10299-0.2197,0.36903-0.31067,0.58359-0.2094l8.70057,4.10999
						c0.2197,0.10384,0.3141,0.3656,0.2094,0.5853C82.92741,100.09645,82.7695,100.18914,82.60473,100.18914z"/>
				</g>
			</g>
			<g>
				<g>
					<path fill="#E53946" d="M50.65987,110.19162c0.115,0,0.22829-0.04463,0.31411-0.13217l5.54749-5.68652
						c0.16993-0.17422,0.16649-0.45228-0.00687-0.62135c-0.17679-0.17164-0.45485-0.16392-0.62135,0.00687l-5.54749,5.68652
						c-0.16993,0.17422-0.16649,0.45228,0.00687,0.62135C50.43846,110.15042,50.55002,110.19162,50.65987,110.19162z"/>
				</g>
				<g>
					<path fill="#E53946" d="M45.31492,105.60189c0.0841,0,0.16821-0.02403,0.24373-0.07381l8.1187-5.41275
						c0.20254-0.13474,0.25575-0.40765,0.12187-0.60933c-0.13388-0.2034-0.40851-0.25575-0.60933-0.12187l-8.1187,5.41276
						c-0.20254,0.13474-0.25575,0.40765-0.12187,0.60933C45.03343,105.53323,45.17418,105.60189,45.31492,105.60189z"/>
				</g>
				<g>
					<path fill="#E53946" d="M43.05439,100.18914c0.06351,0,0.12702-0.01373,0.18709-0.04205l8.70057-4.10999
						c0.2197-0.10384,0.31411-0.3656,0.2094-0.5853c-0.10299-0.2197-0.36903-0.31067-0.58359-0.2094l-8.70057,4.10999
						c-0.2197,0.10384-0.31411,0.3656-0.2094,0.5853C42.7317,100.09645,42.88961,100.18914,43.05439,100.18914z"/>
				</g>
			</g>
		</g>
		<path fill="#E53946" d="M65.46883,95.67697c0,0.82845-1.29617,2.41248-2.89522,2.41248
			c-1.59904,0-2.89522-1.58402-2.89522-2.41248C61.72826,96.26693,63.65841,96.26693,65.46883,95.67697z"/>
		<g>
			<path fill="#E53946" d="M64.48646,101.72358h2.99121c0.30582,0,0.55329,0.24773,0.55329,0.55328
				c0,0.30556-0.24747,0.55329-0.55329,0.55329h-2.99121c-2.26178,0-4.53653,0.51546-6.57787,1.49075
				c-0.27773,0.1321-0.60624,0.0154-0.73808-0.2607c-0.13184-0.27583-0.01513-0.60597,0.26044-0.73781
				C59.62141,102.27633,62.06041,101.72358,64.48646,101.72358z"/>
		</g>
	</g>
	<g>
		<path fill="#F4BD98" d="M85.53324,89.39314c0,2.72178-2.20515,4.93279-4.93293,4.93279
			c-2.72178,0-4.93279-2.21101-4.93279-4.93279c0-2.72778,2.21101-4.9388,4.93279-4.9388
			C83.32809,84.45434,85.53324,86.66535,85.53324,89.39314z"/>
		<path fill="#F4BD98" d="M46.45113,89.39314c0,2.72178-2.20514,4.93279-4.93293,4.93279
			c-2.72178,0-4.93279-2.21101-4.93279-4.93279c0-2.72778,2.21101-4.9388,4.93279-4.9388
			C44.24598,84.45434,46.45113,86.66535,46.45113,89.39314z"/>
		<path fill="#FFCEAB" d="M41.96673,68.78165c-1.35984,3.22603-2.14425,6.83224-2.14425,10.65901
			c0,13.5336,9.56136,33.094,21.33733,33.094c11.77641,0,21.33776-19.5604,21.33776-33.094
			c0-3.82677-0.78441-7.43298-2.14381-10.65901H41.96673z"/>
		<path fill="#F4BD98" d="M62.48704,83.59957c1.23754,0.04848,2.29443-0.55097,3.22045-1.25729
			c0.91614-0.72733,1.89236-1.55723,3.03249-2.10734c2.24509-1.11826,4.90512-1.45982,7.27336-0.79256
			c-1.22467,0.0266-2.41801,0.12616-3.57103,0.39821c-1.14957,0.27163-2.26697,0.64838-3.3097,1.18005
			c-1.06718,0.48961-1.97002,1.23283-3.05009,1.88035C65.03937,83.54035,63.68554,84.02824,62.48704,83.59957z"/>
		<path fill="#FFFFFF" d="M76.07674,84.4272c0,0-1.79757,4.02985-5.03696,4.81952c-3.25101,0.79251-6.70144-1.95803-6.70144-1.95803
			s1.79749-4.03013,5.04851-4.82264C72.62624,81.67638,76.07674,84.4272,76.07674,84.4272z"/>
		<path fill="#168DE2" d="M72.74269,84.97701c0,1.81083-1.47655,3.26936-3.26936,3.26936
			c-1.80997,0-3.26894-1.45853-3.26894-3.26936c0-0.17551,0.01759-0.35144,0.05278-0.52695
			c0.80844-0.86121,1.84559-1.67008,3.12862-1.98634c0.66769-0.15791,1.37057-0.17551,2.0211-0.08797
			C72.21532,82.95591,72.74269,83.90509,72.74269,84.97701z"/>
		<path fill="#0A469E" d="M70.95266,84.98185c0,0.82524-0.66674,1.48363-1.48343,1.48363
			c-0.81689,0-1.48343-0.65839-1.48343-1.48363c0-0.81669,0.66653-1.47488,1.48343-1.47488
			C70.28592,83.50697,70.95266,84.16516,70.95266,84.98185z"/>
		<path fill="#386384" d="M76.082,84.43246c0,0-0.84363,1.88078-2.40772,3.30412c1.17747-1.30062,1.79281-2.68921,1.79281-2.68921
			s-3.46289-2.75916-6.69664-1.96832c-1.00196,0.24588-1.86317,0.79084-2.56606,1.42377
			c0.80844-0.8964,1.88035-1.72286,3.1814-2.03912C72.61954,81.67288,76.082,84.43246,76.082,84.43246z"/>
		<path fill="#F4BD98" d="M59.83302,83.59957c-1.23755,0.04848-2.29443-0.55097-3.22045-1.25729
			c-0.91614-0.72733-1.89236-1.55723-3.0325-2.10734c-2.24508-1.11826-4.90512-1.45982-7.27336-0.79256
			c1.22467,0.0266,2.41802,0.12616,3.57103,0.39821c1.14958,0.27163,2.26697,0.64838,3.3097,1.18005
			c1.06719,0.48961,1.97003,1.23283,3.05009,1.88035C57.28069,83.54035,58.63452,84.02824,59.83302,83.59957z"/>
		<path fill="#FFFFFF" d="M46.24332,84.4272c0,0,1.79757,4.02985,5.03696,4.81952c3.25101,0.79251,6.70144-1.95803,6.70144-1.95803
			s-1.7975-4.03013-5.04851-4.82264C49.69382,81.67638,46.24332,84.4272,46.24332,84.4272z"/>
		<path fill="#168DE2" d="M49.57737,84.97701c0,1.81083,1.47655,3.26936,3.26936,3.26936c1.80997,0,3.26894-1.45853,3.26894-3.26936
			c0-0.17551-0.01759-0.35144-0.05278-0.52695c-0.80844-0.86121-1.84559-1.67008-3.12862-1.98634
			c-0.66769-0.15791-1.37056-0.17551-2.02109-0.08797C50.10474,82.95591,49.57737,83.90509,49.57737,84.97701z"/>
		<path fill="#0A469E" d="M51.3674,84.98185c0,0.82524,0.66674,1.48363,1.48343,1.48363c0.81689,0,1.48343-0.65839,1.48343-1.48363
			c0-0.81669-0.66653-1.47488-1.48343-1.47488C52.03414,83.50697,51.3674,84.16516,51.3674,84.98185z"/>
		<path fill="#386384" d="M46.23806,84.43246c0,0,0.84362,1.88078,2.40772,3.30412
			c-1.17747-1.30062-1.79281-2.68921-1.79281-2.68921s3.46289-2.75916,6.69664-1.96832
			c1.00196,0.24588,1.86318,0.79084,2.56606,1.42377c-0.80844-0.8964-1.88035-1.72286-3.1814-2.03912
			C49.70052,81.67288,46.23806,84.43246,46.23806,84.43246z"/>
		<path fill="#4A749B" d="M83.0252,65.88068v10.82276c0,0.61449-0.4018,1.15783-0.99625,1.31348
			c-5.91791,1.5495-13.10278,2.45493-20.86892,2.45493c-7.7553,0-14.94851-0.90525-20.86708-2.44545
			c-0.5954-0.15494-0.99809-0.69866-0.99809-1.31389v-10.8409c0-0.61524,0.40271-1.15897,0.99812-1.3139
			c5.91857-1.53999,13.11176-2.44548,20.86705-2.44548c7.76613,0,14.95098,0.90566,20.86888,2.45496
			C82.62337,64.72283,83.0252,65.26618,83.0252,65.88068z"/>
		<path fill="#EDEDED" d="M72.9182,68.36429v5.85914c0,1.13003-0.83814,2.09699-1.9616,2.21864
			c-3.1418,0.34019-6.42725,0.52008-9.79678,0.52008c-3.36923,0-6.65467-0.1799-9.79675-0.5201
			c-1.12347-0.12164-1.96164-1.0886-1.96164-2.21864V68.3643c0-1.13004,0.83817-2.097,1.96164-2.21864
			c3.14208-0.34019,6.42751-0.5201,9.79675-0.5201c3.36954,0,6.65498,0.17989,9.79678,0.52008
			C72.08006,66.2673,72.9182,67.23426,72.9182,68.36429z"/>
		<path fill="#FAB941" d="M47.07121,67.77459L42.8462,78.72833l-2.93726-9.65099l-13.14773,6.8536L32.21612,61.944H21.02657
			l12.72812-10.21047l-13.2876-4.33595l15.80525-8.81178l-8.39217-9.93073l15.94511,3.91634L38.51025,19.4237l17.34381,11.18955
			l5.87452-13.14773l6.57387,10.0706l10.35033-8.67191l2.37778,10.49021l17.20394-3.07713l-8.11243,11.46929l18.04316,11.74903
			L96.8358,51.87341l15.1059,10.90981l-13.00786,0.83922l6.01439,7.41308l-9.93073-3.07713l3.35686,8.11243l-9.09151-8.53204
			l0.97909,12.16864L79.33015,65.74406c-1.31542-1.68022-3.22646-2.7965-5.3383-3.10242
			c-6.49643-0.94108-13.22969-0.86597-20.12226-0.12399C50.80133,62.84794,48.18177,64.89536,47.07121,67.77459z"/>
		<path fill="#FAD553" d="M43.74195,67.77459l-3.69629,10.95374l-2.56969-9.65099l-11.50241,6.8536L30.74584,61.944h-9.78928
			l11.13531-10.21047l-11.62477-4.33595l13.82736-8.81178l-7.34196-9.93073l13.94973,3.91634L36.25231,19.4237L51.4257,30.61325
			l5.13937-13.14773l5.75121,10.0706l9.05508-8.67191l2.08022,10.49021l15.05103-3.07713l-7.09723,11.46929L97.1906,49.49562
			l-9.91165,2.37778l13.21554,10.90981l-11.38004,0.83922l5.26173,7.41308l-8.68799-3.07713l2.93679,8.11243l-7.9538-8.53204
			l0.85656,12.16864l-9.56376-13.96336c-1.15081-1.68022-2.82271-2.7965-4.67027-3.10242
			c-5.68346-0.94108-11.57412-0.86597-17.60415-0.12399C47.00527,62.84794,44.71353,64.89536,43.74195,67.77459z"/>
		<g>
			<g>
				<g>
					<path fill="#705C85" d="M73.32971,108.52209c-0.11501,0-0.22829-0.04462-0.31411-0.13216l-5.54749-5.68652
						c-0.16992-0.17422-0.16649-0.45228,0.00687-0.62135c0.1768-0.17165,0.45486-0.16392,0.62135,0.00687l5.54749,5.68652
						c0.16993,0.17422,0.1665,0.45228-0.00687,0.62135C73.55113,108.4809,73.43956,108.52209,73.32971,108.52209z"/>
				</g>
				<g>
					<path fill="#705C85" d="M78.67466,103.93237c-0.0841,0-0.16821-0.02403-0.24373-0.07381l-8.1187-5.41276
						c-0.20254-0.13474-0.25575-0.40765-0.12187-0.60933c0.13389-0.2034,0.40852-0.25574,0.60934-0.12186l8.1187,5.41275
						c0.20254,0.13474,0.25574,0.40765,0.12186,0.60933C78.95615,103.86371,78.81541,103.93237,78.67466,103.93237z"/>
				</g>
				<g>
					<path fill="#705C85" d="M80.9352,98.51961c-0.06351,0-0.12701-0.01373-0.18709-0.04205l-8.70057-4.10998
						c-0.2197-0.10384-0.31411-0.3656-0.2094-0.5853c0.10298-0.2197,0.36903-0.31068,0.58359-0.2094l8.70056,4.10999
						c0.2197,0.10384,0.31411,0.3656,0.2094,0.5853C81.25789,98.42693,81.09998,98.51961,80.9352,98.51961z"/>
				</g>
			</g>
			<g>
				<g>
					<path fill="#705C85" d="M48.99035,108.52209c0.115,0,0.22829-0.04462,0.31411-0.13216l5.54749-5.68652
						c0.16993-0.17422,0.16649-0.45228-0.00687-0.62135c-0.17679-0.17165-0.45485-0.16392-0.62135,0.00687l-5.54749,5.68652
						c-0.16993,0.17422-0.16649,0.45228,0.00687,0.62135C48.76893,108.4809,48.8805,108.52209,48.99035,108.52209z"/>
				</g>
				<g>
					<path fill="#705C85" d="M43.64539,103.93237c0.08411,0,0.16821-0.02403,0.24373-0.07381l8.1187-5.41276
						c0.20254-0.13474,0.25575-0.40765,0.12187-0.60933c-0.13388-0.2034-0.40851-0.25574-0.60933-0.12186l-8.1187,5.41275
						c-0.20254,0.13474-0.25575,0.40765-0.12187,0.60933C43.3639,103.86371,43.50465,103.93237,43.64539,103.93237z"/>
				</g>
				<g>
					<path fill="#705C85" d="M41.38486,98.51961c0.06351,0,0.12702-0.01373,0.18709-0.04205l8.70057-4.10998
						c0.2197-0.10384,0.31411-0.3656,0.2094-0.5853c-0.10299-0.2197-0.36903-0.31068-0.58359-0.2094l-8.70057,4.10999
						c-0.2197,0.10384-0.31411,0.3656-0.2094,0.5853C41.06217,98.42693,41.22008,98.51961,41.38486,98.51961z"/>
				</g>
			</g>
		</g>
		<path fill="#F4BD98" d="M63.7993,94.00745c0,0.82845-1.29618,2.41247-2.89522,2.41247s-2.89522-1.58402-2.89522-2.41247
			C60.05873,94.5974,61.98888,94.5974,63.7993,94.00745z"/>
		<g>
			<path fill="#F4BD98" d="M62.81693,100.05405h2.99122c0.30582,0,0.55328,0.24774,0.55328,0.55329
				s-0.24747,0.55329-0.55328,0.55329h-2.99122c-2.26178,0-4.53653,0.51546-6.57786,1.49074
				c-0.27773,0.13211-0.60624,0.0154-0.73808-0.2607c-0.13184-0.27583-0.01513-0.60596,0.26044-0.73781
				C57.95188,100.6068,60.39089,100.05405,62.81693,100.05405z"/>
		</g>
	</g>
</g>
</svg>
